# xmcd
#
# Track frame offsets: 
#        150
#        21381
#        39211
#
# Disc length: 771 seconds
#
# Revision: 0
# Processed by: cddbd v1.5.2PL0 Copyright (c) Steve Scherf et al.
# Submitted via: ExactAudioCopy v0.95b4
#
DISCID=1a030103
DTITLE=Travelogue - Hospital
DYEAR=2004
DGENRE=Synthpop
TTITLE0=Hospital (single mix)
TTITLE1=Hospital (European compilation mix)
TTITLE2=Channel 37
EXTD=
EXTT0=
EXTT1=
EXTT2=Slightly different version of original song (from - Imaginary Hos
EXTT2=pitals_)
PLAYORDER=
